<svg width="800" height="24" viewBox="0 0 800 24" fill="none" xmlns="http://www.w3.org/2000/svg">
<g clip-path="url(#clip0_8_26)">
<path d="M15.6558 12.0001C15.6558 9.9809 14.0192 8.34216 11.9979 8.34216C9.97666 8.34216 8.34001 9.97881 8.34001 12.0001C8.34001 14.0213 9.97666 15.658 11.9979 15.658C14.0192 15.658 15.6558 14.0213 15.6558 12.0001Z" fill="white"/>
<path d="M12 0C10.8566 0 9.75301 0.163036 8.7058 0.461939V6.94792C9.65267 6.32921 10.7835 5.9676 12 5.9676C15.3318 5.9676 18.0324 8.66818 18.0324 12C18.0324 15.3318 15.3318 18.0324 12 18.0324C8.66818 18.0324 5.96761 15.3318 5.96761 12C5.96761 11.8934 5.96969 11.7868 5.97596 11.6802L5.96761 11.6865V1.62828C2.39959 3.70806 0 7.5729 0 12C0 18.626 5.37189 24 12 24C18.6281 24 23.9979 18.6281 23.9979 12C23.9979 5.37189 18.626 0 12 0Z" fill="white"/>
<path fill-rule="evenodd" clip-rule="evenodd" d="M133.62 17.1546C130.096 19.7544 124.989 21.1373 120.589 21.1373C114.424 21.1373 108.873 18.8594 104.673 15.0645C104.344 14.7669 104.636 14.3596 105.034 14.5913C109.565 17.2278 115.172 18.8179 120.96 18.8179C124.864 18.8179 129.157 18.0082 133.108 16.3327C133.703 16.079 134.203 16.7253 133.62 17.157V17.1546Z" fill="white"/>
<path fill-rule="evenodd" clip-rule="evenodd" d="M135.086 15.4815C134.635 14.9035 132.108 15.2083 130.971 15.3449C130.627 15.3864 130.574 15.0864 130.884 14.8669C132.901 13.4499 136.205 13.8596 136.588 14.3328C136.976 14.8108 136.486 18.1252 134.596 19.7056C134.305 19.9495 134.027 19.8178 134.157 19.4983C134.581 18.435 135.535 16.0595 135.083 15.4815H135.086Z" fill="white"/>
<path fill-rule="evenodd" clip-rule="evenodd" d="M131.052 4.85783V3.4823C131.052 3.27256 131.21 3.13354 131.401 3.13354H137.571C137.769 3.13354 137.927 3.27744 137.927 3.47987V4.66028C137.927 4.85783 137.759 5.11635 137.464 5.52608L134.269 10.0892C135.454 10.0624 136.71 10.2404 137.788 10.8453C138.032 10.9818 138.095 11.1843 138.115 11.3818V12.85C138.115 13.0524 137.893 13.2866 137.661 13.1646C135.761 12.1696 133.242 12.0623 131.142 13.1768C130.927 13.2915 130.703 13.0598 130.703 12.8573V11.4623C130.703 11.2379 130.708 10.8575 130.932 10.516L134.635 5.20415H131.41C131.213 5.20415 131.054 5.0627 131.054 4.85783H131.052Z" fill="white"/>
<path fill-rule="evenodd" clip-rule="evenodd" d="M108.548 13.4548H106.67C106.492 13.4426 106.348 13.3085 106.334 13.1377V3.50419C106.334 3.31152 106.497 3.15788 106.697 3.15788H108.446C108.629 3.16763 108.775 3.30421 108.787 3.47981V4.73826H108.822C109.278 3.52126 110.136 2.95544 111.292 2.95544C112.448 2.95544 113.202 3.5237 113.729 4.73826C114.185 3.52126 115.219 2.95544 116.321 2.95544C117.109 2.95544 117.967 3.27982 118.494 4.00904C119.089 4.82118 118.967 5.99428 118.967 7.02837V13.1085C118.967 13.3012 118.804 13.4548 118.604 13.4548H116.728C116.541 13.4426 116.392 13.2938 116.392 13.1085V8.00148C116.392 7.59662 116.426 6.58205 116.338 6.19671C116.199 5.54797 115.777 5.36505 115.236 5.36505C114.78 5.36505 114.307 5.66991 114.114 6.15525C113.921 6.64302 113.938 7.45273 113.938 7.99903V13.106C113.938 13.2987 113.777 13.4524 113.577 13.4524H111.702C111.514 13.4402 111.365 13.2914 111.365 13.106V7.99903C111.365 6.92593 111.538 5.3431 110.207 5.3431C108.875 5.3431 108.909 6.88203 108.909 7.99903V13.106C108.909 13.2987 108.746 13.4524 108.546 13.4524L108.548 13.4548Z" fill="white"/>
<path fill-rule="evenodd" clip-rule="evenodd" d="M143.236 2.95544C146.022 2.95544 147.529 5.34799 147.529 8.38926C147.529 11.4305 145.866 13.6597 143.236 13.6597C140.607 13.6597 139.015 11.2671 139.015 8.28682C139.015 5.30652 140.522 2.95544 143.236 2.95544ZM143.254 4.92362C141.871 4.92362 141.783 6.80886 141.783 7.9844C141.783 9.15994 141.766 11.6744 143.236 11.6744C144.707 11.6744 144.761 9.64772 144.761 8.41121C144.761 7.6015 144.727 6.6284 144.48 5.85771C144.271 5.18946 143.849 4.92606 143.254 4.92606V4.92362Z" fill="white"/>
<path fill-rule="evenodd" clip-rule="evenodd" d="M151.141 13.4548H149.27C149.082 13.4426 148.934 13.2938 148.934 13.1085V3.47248C148.946 3.29688 149.102 3.15787 149.292 3.15787H151.034C151.197 3.16518 151.334 3.27737 151.368 3.42615V4.89922H151.402C151.929 3.58223 152.663 2.953 153.96 2.953C154.802 2.953 155.624 3.25786 156.15 4.08952C156.641 4.8602 156.641 6.15768 156.641 7.08933V13.1499C156.619 13.3207 156.467 13.4524 156.28 13.4524H154.399C154.226 13.4402 154.085 13.3133 154.065 13.1499V7.92098C154.065 6.86739 154.187 5.32602 152.892 5.32602C152.436 5.32602 152.016 5.63088 151.807 6.09671C151.543 6.68448 151.509 7.27224 151.509 7.92098V13.1085C151.507 13.3011 151.343 13.4548 151.143 13.4548H151.141Z" fill="white"/>
<path fill-rule="evenodd" clip-rule="evenodd" d="M126.135 8.85511C126.135 9.58677 126.152 10.1965 125.784 10.8452C125.486 11.372 125.011 11.6988 124.484 11.6988C123.764 11.6988 123.343 11.1501 123.343 10.3379C123.343 8.74049 124.777 8.44782 126.135 8.44782V8.85511ZM128.025 13.4329C127.901 13.5451 127.723 13.5524 127.581 13.4768C126.957 12.9597 126.847 12.7183 126.506 12.2256C125.477 13.2744 124.745 13.589 123.411 13.589C121.83 13.589 120.601 12.6134 120.601 10.6647C120.601 9.14045 121.426 8.10394 122.604 7.59666C123.621 7.15034 125.045 7.06742 126.133 6.94547V6.70159C126.133 6.25527 126.167 5.72603 125.903 5.34069C125.674 4.99437 125.235 4.85292 124.85 4.85292C124.133 4.85292 123.499 5.21875 123.34 5.97968C123.308 6.14796 123.184 6.31624 123.013 6.326L121.194 6.12845C121.04 6.0943 120.87 5.96993 120.913 5.73579C121.333 3.52861 123.325 2.86279 125.111 2.86279C126.025 2.86279 127.218 3.10668 127.937 3.79689C128.85 4.65049 128.762 5.78701 128.762 7.02839V9.9526C128.762 10.833 129.128 11.2184 129.469 11.6915C129.589 11.8622 129.615 12.0647 129.462 12.1915C129.079 12.5134 128.398 13.1036 128.023 13.4377L128.018 13.4329H128.025Z" fill="white"/>
<path fill-rule="evenodd" clip-rule="evenodd" d="M101.529 8.85511C101.529 9.58677 101.546 10.1965 101.178 10.8452C100.881 11.372 100.405 11.6988 99.8782 11.6988C99.1587 11.6988 98.7368 11.1501 98.7368 10.3379C98.7368 8.74049 100.171 8.44782 101.529 8.44782V8.85511ZM103.422 13.4329C103.297 13.5451 103.119 13.5524 102.978 13.4768C102.354 12.9597 102.241 12.7183 101.902 12.2256C100.871 13.2744 100.142 13.589 98.8075 13.589C97.2271 13.589 95.9979 12.6134 95.9979 10.6647C95.9979 9.14045 96.8223 8.10394 98.0002 7.59666C99.0172 7.15034 100.442 7.06742 101.529 6.94547V6.70159C101.529 6.25527 101.563 5.72603 101.302 5.34069C101.073 4.99437 100.634 4.85292 100.249 4.85292C99.5318 4.85292 98.8953 5.21875 98.7392 5.97968C98.7075 6.14796 98.5831 6.31624 98.4124 6.326L96.593 6.12845C96.4393 6.0943 96.2686 5.96993 96.3125 5.73579C96.7296 3.52861 98.7221 2.86279 100.51 2.86279C101.422 2.86279 102.617 3.10668 103.336 3.79689C104.249 4.65049 104.161 5.78701 104.161 7.02839V9.9526C104.161 10.833 104.527 11.2184 104.868 11.6915C104.988 11.8622 105.014 12.0647 104.863 12.1915C104.48 12.5134 103.797 13.1036 103.424 13.4377L103.419 13.4329H103.422Z" fill="white"/>
<path fill-rule="evenodd" clip-rule="evenodd" d="M257.838 2.61583C258.245 2.63608 258.61 2.78789 258.908 3.04345C259.315 3.42805 259.422 4.07075 259.229 4.5844C258.48 6.12533 256.699 7.15514 255.482 7.49673C254.753 7.66879 253.832 7.6688 253.169 7.41071C252.848 7.60301 252.577 8.22546 252.185 7.96737C251.616 7.52458 252.109 6.82875 251.78 6.33788C251.712 6.23666 251.542 6.22907 251.456 6.06207C251.006 5.07779 251.563 4.13399 252.185 3.38503C253.22 2.23123 256.188 0.94332 257.838 2.6133V2.61583ZM254.389 3.38757C253.812 3.49384 253.157 3.74686 252.805 4.1593C252.451 4.57173 252.228 4.97405 252.441 5.40167C253.19 4.84501 253.554 4.07328 254.389 3.60265C254.389 3.51662 254.518 3.45335 254.389 3.38757ZM257.878 3.60265C256.401 3.4736 255.287 4.58692 254.24 5.65723C254.176 5.82929 253.789 6.02158 254.09 6.21388C255.505 6.34292 256.854 5.93556 257.881 4.9943C258.179 4.71597 258.394 4.35161 258.245 3.96701C258.182 3.81772 258.03 3.66844 257.881 3.60265H257.878Z" fill="white"/>
<path fill-rule="evenodd" clip-rule="evenodd" d="M270.684 9.98147C271.37 11.6515 271.947 14.2855 270.684 15.8897C270.342 16.2743 269.743 16.631 269.356 16.3401C267.944 15.2065 267.344 13.577 266.466 12.1221C266.337 12.0588 266.337 12.2284 266.274 12.2941C265.952 13.7718 266.552 15.6974 265.545 16.8537C265.16 16.917 264.799 16.7196 264.667 16.3401C264.174 14.8194 264.687 13.2354 264.816 11.7147C265.115 10.943 265.244 10.0447 265.909 9.46783C266.98 9.89545 267.493 11.0948 268.116 11.9728C268.566 12.6357 268.93 13.3847 269.444 13.9844C269.895 13.7921 269.672 13.2051 269.659 12.8508C269.487 11.4592 269.103 10.1738 268.738 8.84791C268.718 8.50633 268.523 7.9269 268.887 7.71436C269.852 8.14197 270.259 9.14901 270.687 9.98401L270.684 9.98147Z" fill="white"/>
<path fill-rule="evenodd" clip-rule="evenodd" d="M264.217 9.46782C264.217 9.78916 263.958 10.1915 263.746 10.2395C261.691 10.5609 259.399 10.3686 257.473 11.0113C257.41 11.2466 257.688 11.2896 257.838 11.3529C259.488 11.611 261.221 11.6742 262.827 12.0816C263.678 12.2967 263.984 13.3012 264.047 14.1362C264.088 14.794 263.832 15.5911 263.192 16.0415C261.608 17.0485 259.189 17.0055 257.582 16.0845C256.967 15.7404 256.383 15.1862 256.34 14.5005C256.342 13.9565 256.575 13.5289 256.96 13.324C258.501 12.704 260.406 13.0456 261.734 13.8376C261.82 14.2652 261.357 14.2424 261.135 14.3943C259.657 15.2495 258.544 13.4302 257.175 14.0957C256.983 14.2247 256.843 14.584 257.069 14.6954C258.759 15.4443 260.644 14.9104 262.314 14.4373C262.506 14.374 262.741 14.1792 262.764 13.9869C262.701 13.3012 261.929 13.1519 261.436 12.9596C259.981 12.5952 258.374 12.5952 256.81 12.4459C256.512 12.3827 256.13 12.1727 256.039 11.9323C255.867 11.4187 255.867 10.7127 256.254 10.2826C258.245 8.52655 261.264 8.67584 263.792 9.149C263.964 9.21226 264.156 9.27805 264.219 9.47035L264.217 9.46782Z" fill="white"/>
<path fill-rule="evenodd" clip-rule="evenodd" d="M254.86 10.2826C255.052 12.3372 255.158 14.2425 255.118 16.4059C255.075 16.6842 254.753 16.7475 254.541 16.8563C254.199 16.9195 253.756 16.8461 253.62 16.664C253.126 15.872 253.298 14.8017 253.255 13.8376C253.319 12.3169 253.298 10.6697 253.726 9.2553C253.807 9.05034 254.047 8.87069 254.24 8.9972C254.753 9.25529 254.839 9.76894 254.86 10.2826Z" fill="white"/>
<path fill-rule="evenodd" clip-rule="evenodd" d="M278.647 9.98153C278.75 10.1536 278.857 10.4218 278.647 10.5382C277.683 10.9658 276.377 10.7735 275.264 10.9026C274.965 11.1606 274.727 11.5883 274.836 11.9729C274.942 12.0361 275.039 12.1348 275.158 12.1221C275.843 12.1652 276.871 11.8008 277.321 12.4435C277.432 12.6333 277.306 13.3468 277 13.3645C276.165 13.4708 274.791 13.2582 274.388 13.4708C273.875 13.8124 273.918 14.4778 273.725 15.0117C274.09 15.247 274.472 15.0067 274.902 14.9485C275.694 14.8194 276.572 14.5841 277.364 14.7562C277.513 15.0345 277.728 15.3331 277.579 15.6772C276.23 16.7475 274.49 17.8456 272.632 17.0688C271.936 16.7576 271.625 15.6974 271.861 14.7992C272.01 14.1565 272.675 13.5366 272.268 12.8509C272.205 12.5523 272.374 12.2942 272.632 12.2309C273.338 12.2309 273.189 11.3529 273.553 10.9456C273.146 10.4952 272.119 10.5179 272.225 9.61717C272.718 9.35908 273.318 9.44512 273.875 9.35909C275.137 9.101 276.552 8.95171 277.835 9.101C278.093 9.1516 278.434 9.65765 278.649 9.97899L278.647 9.98153Z" fill="white"/>
<path fill-rule="evenodd" clip-rule="evenodd" d="M248.073 5.10056C250.05 6.71488 252.613 9.46781 252.291 12.6357C251.907 15.1407 249.25 17.0258 247.003 17.6254C244.82 18.2681 242.079 18.2023 239.853 17.6887C239.703 18.0961 239.554 18.5869 239.081 18.759C238.782 18.8653 238.395 18.802 238.16 18.6097C237.497 17.9898 238.031 16.7904 237.067 16.4033C235.182 15.6113 233.147 14.0476 232.186 12.1221C232.057 11.7375 232.206 11.3503 232.444 11.0518C233.922 9.8752 235.784 9.40203 237.646 9.0402C237.752 9.08322 237.709 8.93392 237.795 8.89091C237.902 7.60553 237.945 6.29991 238.352 5.14357C238.446 4.98163 238.673 4.9285 238.823 5.0373C239.999 5.93555 239.443 7.62831 239.956 8.8479C242.203 8.95417 244.453 9.06296 246.229 10.3256C246.829 10.819 246.975 11.7577 246.786 12.2941C246.596 12.8306 245.971 13.2152 245.394 13.2582C245.009 13.2582 244.281 13.2961 244.324 13.0001C244.367 12.7066 245.634 12.2233 245.245 11.8235C244.685 11.2466 241.887 10.9025 240.154 10.6899C239.939 10.6469 239.744 10.7102 239.744 10.948C239.701 12.575 239.572 14.374 239.85 15.9377C239.87 16.044 239.999 16.173 240.108 16.1958C243.17 16.6892 246.403 16.4109 248.8 14.6549C249.913 13.7566 250.277 12.4915 250.085 11.0999C249.121 7.22347 245.075 4.89055 241.755 3.39263C238.522 1.98073 234.946 1.25201 231.116 1.44431C230.506 1.48985 229.539 1.69986 229.532 1.91494C229.524 2.13001 230.627 2.06423 230.496 2.4716C230.364 2.87898 229.243 2.6386 228.912 2.53486C228.58 2.43365 228.613 1.95796 228.697 1.65686C229.532 0.179178 231.862 0.0602505 232.915 0.00711471C238.739 -0.142172 244.369 2.07435 248.073 5.10309V5.10056ZM237.583 10.8392C236.105 10.8595 234.542 11.0113 233.173 11.5249C232.894 11.6312 232.553 11.9323 232.765 12.2967C233.322 13.0456 234.116 13.6605 234.863 14.0957C235.609 14.5284 236.596 15.08 237.497 15.209C237.712 13.8174 237.712 12.446 237.689 11.0138C237.603 10.9708 237.689 10.8848 237.583 10.8418V10.8392Z" fill="white"/>
<path fill-rule="evenodd" clip-rule="evenodd" d="M281.837 8.8909C281.774 10.7532 280.038 11.9095 280.038 13.7718C280.102 13.8351 280.145 13.9211 280.231 13.8781C281.622 12.3574 282.994 10.1965 285.026 9.55384C285.562 9.51082 286.045 9.97639 286.245 10.3256C286.951 11.7375 286.782 13.7288 285.795 15.0142C284.778 16.2743 283.011 17.5394 281 17.3268C280.165 19.3814 279.588 21.5448 279.267 23.7917C279.095 24.2421 278.69 23.8347 278.432 23.7487C276.698 22.3773 278.12 18.7514 278.239 18.2884C278.356 17.8253 278.821 16.7373 279.16 15.8264C278.346 14.3715 278.862 12.6155 279.525 11.2668C280.038 10.3686 280.744 9.46781 281.579 8.7821C281.686 8.7821 281.772 8.80234 281.837 8.88837V8.8909ZM285.284 11.2036C285.026 11.1606 284.919 11.5022 284.707 11.5679C283.722 12.6813 282.738 13.7946 282.245 15.123C282.908 15.209 283.464 14.7814 284.044 14.5461C285.028 13.9262 285.651 12.8963 285.585 11.7198C285.542 11.5274 285.37 11.3782 285.286 11.2061L285.284 11.2036Z" fill="white"/>
<path d="M372.537 14.3444H371.788V15.2749H372.537C372.597 15.2749 372.658 15.2507 372.694 15.2024C372.73 15.154 372.755 15.0936 372.755 15.009V14.6102C372.755 14.5377 372.73 14.4652 372.694 14.4169C372.658 14.3685 372.61 14.3444 372.537 14.3444Z" fill="white"/>
<path d="M369.721 14.3444H369.177C369.105 14.3444 369.057 14.3685 369.008 14.4169C368.972 14.4652 368.948 14.5256 368.948 14.6102V16.2658C368.948 16.3383 368.972 16.3987 369.008 16.4592C369.057 16.5075 369.105 16.5438 369.177 16.5438H369.721C369.782 16.5438 369.842 16.5196 369.89 16.4592C369.939 16.4108 369.951 16.3504 369.951 16.2658V14.6102C369.951 14.5377 369.927 14.4652 369.89 14.4169C369.842 14.3685 369.782 14.3444 369.721 14.3444Z" fill="white"/>
<path d="M366.966 14.3444H366.181V15.3474H366.966C367.026 15.3474 367.087 15.3232 367.135 15.2749C367.184 15.2265 367.196 15.1661 367.196 15.0815V14.6102C367.196 14.5256 367.171 14.4652 367.135 14.4169C367.087 14.3685 367.039 14.3444 366.966 14.3444Z" fill="white"/>
<path d="M370.676 0C364.054 0 358.676 5.37764 358.676 12C358.676 18.6224 364.054 24 370.676 24C377.298 24 382.676 18.6224 382.676 12C382.676 5.36556 377.31 0 370.676 0ZM366.193 5.54683H372.356L371.413 7.04532H365.25L366.193 5.54683ZM364.948 16.3746C364.948 16.568 364.887 16.7251 364.755 16.858C364.622 16.9909 364.452 17.0634 364.271 17.0634H363.461C363.268 17.0634 363.111 17.003 362.978 16.8701C362.845 16.7372 362.785 16.5801 362.785 16.3867V16.0604H363.28L363.353 16.3625C363.389 16.4834 363.474 16.5438 363.607 16.5438H364.162C364.235 16.5438 364.283 16.5196 364.332 16.4713C364.368 16.423 364.392 16.3505 364.392 16.2779V15.9275C364.392 15.7583 364.319 15.6616 364.162 15.6616H363.474C363.28 15.6616 363.123 15.6012 362.978 15.4562C362.845 15.3233 362.785 15.1541 362.785 14.9728V14.5015C362.785 14.3082 362.857 14.1511 362.978 14.0181C363.111 13.8852 363.28 13.8127 363.474 13.8127H364.271C364.465 13.8127 364.622 13.8731 364.755 14.006C364.887 14.139 364.948 14.2961 364.948 14.4894V14.7795H364.452L364.38 14.5136C364.344 14.3927 364.259 14.3323 364.126 14.3323H363.582C363.51 14.3323 363.461 14.3565 363.413 14.4048C363.365 14.4532 363.353 14.5136 363.353 14.5982V14.8761C363.353 15.0453 363.425 15.1299 363.582 15.1299H364.271C364.452 15.1299 364.622 15.2024 364.755 15.3353C364.887 15.4683 364.96 15.6375 364.96 15.8187V16.3746H364.948ZM367.776 15.1782C367.776 15.3716 367.703 15.5287 367.57 15.6616C367.437 15.7946 367.268 15.8671 367.075 15.8671H366.181V17.0514H365.613V13.8127H367.075C367.268 13.8127 367.425 13.8852 367.57 14.0181C367.703 14.1511 367.776 14.3082 367.776 14.5015V15.1782ZM370.519 16.3625C370.519 16.5559 370.458 16.7251 370.313 16.858C370.181 16.9909 370.023 17.0634 369.83 17.0634H369.057C368.863 17.0634 368.706 16.9909 368.561 16.858C368.428 16.7251 368.356 16.568 368.356 16.3625V14.5015C368.356 14.3202 368.428 14.1511 368.561 14.0181C368.694 13.8852 368.863 13.8127 369.057 13.8127H369.83C370.023 13.8127 370.181 13.8852 370.313 14.0181C370.446 14.1511 370.519 14.3082 370.519 14.5015V16.3625ZM370.664 13.0514H362.857L364.755 10.0544H363.365L364.319 8.55589H370.132L369.178 10.0544H366.567L365.6 11.5529H369.794L373.625 5.49849L378.398 13.0514H376.597L375.655 11.5529H372.827L373.782 10.0544H374.712L373.637 8.35045L370.664 13.0514ZM372.863 17.0634L372.332 15.7946H371.788V17.0634H371.22V13.8248H372.658C372.851 13.8248 373.008 13.8973 373.141 14.0302C373.274 14.1631 373.347 14.3202 373.347 14.5136V15.0816C373.347 15.2266 373.31 15.3595 373.226 15.4804C373.141 15.6012 373.032 15.6858 372.912 15.7341L373.48 17.0755H372.863V17.0634ZM375.933 14.3444H375.099V17.0634H374.519V14.3444H373.697V13.8248H375.921V14.3444H375.933ZM378.531 16.3746C378.531 16.568 378.458 16.7251 378.326 16.858C378.193 16.9909 378.023 17.0634 377.83 17.0634H377.02C376.827 17.0634 376.67 17.003 376.537 16.8701C376.404 16.7372 376.344 16.5801 376.344 16.3867V16.0604H376.839L376.912 16.3625C376.948 16.4834 377.032 16.5438 377.165 16.5438H377.709C377.782 16.5438 377.83 16.5196 377.878 16.4713C377.915 16.423 377.939 16.3505 377.939 16.2779V15.9275C377.939 15.7583 377.866 15.6616 377.709 15.6616H377.02C376.827 15.6616 376.67 15.6012 376.537 15.4562C376.404 15.3233 376.332 15.1541 376.332 14.9728V14.5015C376.332 14.3082 376.404 14.1511 376.537 14.0181C376.67 13.8852 376.839 13.8127 377.02 13.8127H377.818C378.011 13.8127 378.168 13.8731 378.301 14.006C378.434 14.139 378.495 14.2961 378.495 14.4894V14.7795H378.023L377.951 14.5136C377.915 14.3927 377.83 14.3323 377.697 14.3323H377.153C377.081 14.3323 377.02 14.3565 376.984 14.4048C376.948 14.4532 376.924 14.5136 376.924 14.5982V14.8761C376.924 15.0453 376.996 15.1299 377.153 15.1299H377.842C378.036 15.1299 378.193 15.2024 378.326 15.3353C378.471 15.4683 378.531 15.6375 378.531 15.8187V16.3746ZM378.881 13.9819H378.761V14.2477H378.7V13.9819H378.579V13.9335H378.881V13.9819ZM379.244 14.2357V14.0423C379.244 14.0302 379.244 14.0181 379.244 14.006C379.244 14.0181 379.232 14.0302 379.232 14.0423L379.135 14.1994H379.123L379.026 14.0423C379.026 14.0302 379.014 14.0181 379.002 14.006C379.002 14.0181 379.014 14.0302 379.014 14.0423V14.2357H378.966V13.9215H379.014L379.135 14.1148L379.256 13.9215H379.304V14.2357H379.244Z" fill="white"/>
<path opacity="0.5" fill-rule="evenodd" clip-rule="evenodd" d="M461.568 6.93001H466.972C469.873 6.93001 470.965 8.39835 470.796 10.5587C470.52 14.1213 468.365 16.0921 465.507 16.0921H464.066C463.674 16.0921 463.41 16.3509 463.304 17.0549L462.684 21.138C462.645 21.4028 462.504 21.5593 462.296 21.5773H458.908C458.589 21.5773 458.475 21.3336 458.559 20.804L460.629 7.7033C460.714 7.17975 460.999 6.927 461.571 6.927L461.568 6.93001Z" fill="white"/>
<path fill-rule="evenodd" clip-rule="evenodd" d="M485.026 6.68929C486.849 6.68929 488.531 7.67922 488.299 10.1435C488.025 13.0651 486.452 14.693 483.975 14.699H481.815C481.502 14.699 481.355 14.9517 481.273 15.4723L480.855 18.1321C480.792 18.5323 480.587 18.7309 480.28 18.7309H478.268C477.946 18.7309 477.834 18.5263 477.906 18.0659L479.57 7.40541C479.652 6.88186 479.853 6.68628 480.208 6.68628H485.026V6.68929ZM481.749 12.3972H483.389C484.415 12.358 485.095 11.648 485.164 10.3692C485.206 9.57783 484.673 9.01216 483.822 9.01517L482.278 9.02118L481.749 12.3972ZM493.772 17.9155C493.956 17.75 494.142 17.6627 494.115 17.8673L494.049 18.3608C494.016 18.6196 494.118 18.755 494.359 18.755H496.146C496.447 18.755 496.595 18.6316 496.667 18.1682L497.768 11.2538C497.822 10.9078 497.738 10.7363 497.476 10.7363H495.512C495.334 10.7363 495.25 10.8355 495.202 11.1063L495.129 11.5306C495.09 11.7533 494.991 11.7924 494.895 11.5667C494.561 10.7754 493.709 10.4233 492.518 10.4474C489.759 10.5046 487.902 12.5988 487.7 15.2797C487.547 17.3558 489.033 18.9866 490.995 18.9866C492.418 18.9866 493.053 18.5624 493.769 17.9125L493.772 17.9155ZM492.274 16.8533C491.085 16.8533 490.261 15.9055 490.433 14.7471C490.604 13.5857 491.714 12.6409 492.903 12.6409C494.091 12.6409 494.916 13.5887 494.744 14.7471C494.573 15.9086 493.462 16.8533 492.274 16.8533ZM501.271 10.7152H499.465C499.092 10.7152 498.939 10.989 499.059 11.338L501.31 17.9305L499.092 21.0658C498.906 21.3276 499.05 21.5683 499.312 21.5683H501.349C501.653 21.5683 501.8 21.4901 501.954 21.2704L508.877 11.341C509.091 11.0341 508.988 10.7152 508.639 10.7152H506.714C506.383 10.7152 506.25 10.8446 506.061 11.1184L503.172 15.3068L501.887 11.1094C501.809 10.8506 501.62 10.7182 501.274 10.7182L501.271 10.7152Z" fill="white"/>
<path fill-rule="evenodd" clip-rule="evenodd" d="M516.08 6.68929C517.904 6.68929 519.586 7.67922 519.354 10.1435C519.08 13.0651 517.507 14.693 515.03 14.699H512.87C512.557 14.699 512.409 14.9517 512.328 15.4723L511.91 18.1321C511.847 18.5323 511.642 18.7309 511.335 18.7309H509.322C509 18.7309 508.889 18.5263 508.961 18.0659L510.625 7.40541C510.706 6.88186 510.908 6.68628 511.263 6.68628H516.08V6.68929ZM512.804 12.3972H514.444C515.47 12.358 516.15 11.648 516.219 10.3692C516.261 9.57783 515.728 9.01216 514.877 9.01517L513.333 9.02118L512.804 12.3972ZM524.827 17.9155C525.011 17.75 525.197 17.6627 525.17 17.8673L525.104 18.3608C525.071 18.6196 525.173 18.755 525.414 18.755H527.201C527.502 18.755 527.65 18.6316 527.722 18.1682L528.823 11.2538C528.877 10.9078 528.793 10.7363 528.531 10.7363H526.566C526.389 10.7363 526.305 10.8355 526.256 11.1063L526.184 11.5306C526.145 11.7533 526.046 11.7924 525.95 11.5667C525.616 10.7754 524.764 10.4233 523.572 10.4474C520.813 10.5046 518.957 12.5988 518.755 15.2797C518.602 17.3558 520.088 18.9866 522.05 18.9866C523.473 18.9866 524.108 18.5624 524.824 17.9125L524.827 17.9155ZM523.332 16.8533C522.143 16.8533 521.316 15.9055 521.49 14.7471C521.662 13.5857 522.772 12.6409 523.961 12.6409C525.149 12.6409 525.974 13.5887 525.802 14.7471C525.631 15.9086 524.52 16.8533 523.335 16.8533H523.332ZM531.579 18.77H529.515C529.353 18.77 529.238 18.6406 529.262 18.4842L531.077 6.99921C531.101 6.84274 531.257 6.71336 531.42 6.71336H533.484C533.649 6.71336 533.761 6.84274 533.737 6.99921L531.922 18.4842C531.898 18.6406 531.742 18.77 531.579 18.77Z" fill="white"/>
<path fill-rule="evenodd" clip-rule="evenodd" d="M458.189 2.42273H463.599C465.122 2.42273 466.93 2.47087 468.14 3.53903C468.946 4.25214 469.37 5.38649 469.274 6.60509C468.943 10.7363 466.473 13.0502 463.16 13.0502H460.491C460.037 13.0502 459.736 13.351 459.609 14.1665L458.866 18.9025C458.818 19.2094 458.686 19.3899 458.442 19.414H455.111C454.741 19.414 454.609 19.1311 454.708 18.5173L457.106 3.3254C457.202 2.7176 457.536 2.42574 458.198 2.42574L458.189 2.42273Z" fill="white"/>
<path fill-rule="evenodd" clip-rule="evenodd" d="M459.682 13.685L460.626 7.70635C460.711 7.1828 460.996 6.93005 461.568 6.93005H466.972C467.866 6.93005 468.588 7.06847 469.157 7.32723C468.615 11.0041 466.235 13.0441 463.124 13.0441H460.455C460.103 13.0441 459.841 13.2247 459.685 13.682L459.682 13.685Z" fill="white"/>
<path d="M606.581 0.0899658H609.483C611.345 0.0899658 612.871 1.26738 612.871 3.23531C612.871 5.20324 611.227 6.38064 609.437 6.38064H606.578V0.0899658H606.581ZM608.649 1.73583V4.78288H609.197C610.23 4.78288 610.797 4.17222 610.797 3.25413C610.797 2.4176 610.24 1.73583 609.197 1.73583H608.649Z" fill="white"/>
<path d="M620.216 3.23527C620.216 5.15928 618.662 6.47053 616.755 6.47053C614.847 6.47053 613.321 5.17601 613.321 3.23527C613.321 1.29453 614.939 0 616.79 0C618.767 0 620.214 1.30289 620.214 3.23527M615.397 3.25409C615.397 4.07179 615.964 4.69291 616.774 4.69291C617.583 4.69291 618.139 4.07179 618.139 3.25409C618.139 2.43638 617.591 1.81526 616.774 1.81526C615.956 1.81526 615.397 2.44475 615.397 3.25409Z" fill="white"/>
<path d="M625.105 6.38274H620.693V0.0899658H622.761V4.76406H625.105V6.38274Z" fill="white"/>
<path d="M627.734 4.76406V0.0899658H625.668V6.38274H629.554L630.194 4.76406H627.734Z" fill="white"/>
<path d="M641.535 3.97354C642.269 3.65984 642.756 2.98435 642.756 2.1039C642.756 0.980868 642.022 0.0899658 640.587 0.0899658H637.43V5.37263L637.821 6.38064H639.42V4.20568H639.544L641.02 6.38064H643.383L641.535 3.97145V3.97354ZM640.129 2.8756H639.423V1.72538H640.129C640.589 1.72538 640.803 1.97633 640.803 2.30049C640.803 2.62464 640.589 2.8756 640.129 2.8756Z" fill="white"/>
<path d="M634.782 0.0899658H632.588L630.099 6.38064H632.13L632.509 5.32871H634.782L635.169 6.38064H637.262L634.782 0.0899658ZM633.002 3.97354L633.64 2.21265L634.286 3.97354H633.002Z" fill="white"/>
<path d="M605.74 20.7626C605.74 18.849 607.214 17.5441 609.201 17.5441C610.109 17.5441 610.809 17.7511 611.376 18.1464V20.1059C610.711 19.6019 610.127 19.3698 609.435 19.3698C608.429 19.3698 607.854 19.9993 607.854 20.7898C607.854 21.5803 608.465 22.2286 609.473 22.2286C610.209 22.2286 610.776 21.986 611.378 21.5447V23.4144C610.713 23.8013 610.048 23.9811 609.176 23.9811C607.181 23.9811 605.742 22.6866 605.742 20.7626" fill="white"/>
<path d="M620.394 17.6172V21.1034C620.394 21.7684 620.034 22.1637 619.459 22.1637C618.884 22.1637 618.516 21.7956 618.516 21.1034V17.6172H616.449V21.1578C616.449 21.574 616.512 21.9546 616.633 22.2913C616.767 22.6635 616.972 22.9835 617.246 23.2428C617.757 23.728 618.501 23.9999 619.442 23.9999C621.429 23.9999 622.426 22.7409 622.426 21.1599V17.6193H620.396L620.394 17.6172Z" fill="white"/>
<path d="M622.993 17.6172H626.228C627.621 17.6172 628.259 18.3805 628.259 19.2526C628.259 19.8905 627.891 20.3401 627.37 20.6099C628.044 20.8441 628.567 21.346 628.567 22.101C628.567 23.1801 627.793 23.9079 626.337 23.9079H622.993V17.6172ZM625.007 19.0999V20.1247H625.735C626.212 20.1247 626.392 19.8904 626.392 19.6039C626.392 19.3174 626.185 19.0999 625.727 19.0999H625.007ZM625.007 21.4276V22.5339H625.906C626.348 22.5339 626.59 22.3268 626.59 21.9943C626.59 21.6618 626.366 21.4276 625.917 21.4276H625.009H625.007Z" fill="white"/>
<path d="M606.428 12.9327C607.57 13.5433 608.251 13.7587 608.801 13.7587C609.153 13.7587 609.333 13.6249 609.333 13.399C609.333 13.238 609.234 13.1021 608.929 13.0038L607.768 12.6252C606.744 12.2927 606.294 11.6821 606.294 10.81C606.294 9.59702 607.237 8.7605 608.91 8.7605C609.864 8.7605 610.592 8.98427 611.058 9.25405V11.0965C610.104 10.513 609.368 10.3332 608.812 10.3332C608.507 10.3332 608.327 10.4586 608.327 10.6469C608.327 10.8079 608.436 10.9355 608.741 11.0338L609.945 11.4374C611.041 11.8055 611.437 12.3534 611.437 13.1983C611.437 14.3945 610.439 15.2289 608.82 15.2289C607.831 15.2289 607.059 15.0219 606.43 14.6726V12.9285L606.428 12.9327Z" fill="white"/>
<path d="M622.403 8.85254H620.21L617.721 15.1432H619.752L620.13 14.0913H622.403L622.79 15.1432H624.884L622.403 8.85254ZM620.624 12.7361L621.262 10.9752L621.908 12.7361H620.622H620.624Z" fill="white"/>
<path d="M632.182 13.6521V12.78H634.717V11.3161H632.182V10.4607H635.014V8.85254H630.752L630.116 10.467V15.1432H635.022V13.6521H632.182Z" fill="white"/>
<path d="M628.046 8.85254L626.626 12.8971L625.179 8.85254H623.014L625.503 15.1432H627.697L629.541 10.467L630.177 8.85254H628.046Z" fill="white"/>
<path d="M617.97 8.85254H615.902V11.0735H613.952V8.85254H611.884V15.1432H613.952V12.8344H615.902V15.1432H617.167L617.97 13.1167V8.85254Z" fill="white"/>
<path d="M614.005 22.2892V17.6172H611.938V23.9079H616.688L616.048 22.2892H614.005Z" fill="white"/>
<path d="M715.383 7.26738H719.341L721.647 13.1654L723.981 7.26738H727.837L722.032 21.2268H718.154L719.744 17.5262L715.387 7.26428L715.383 7.26738Z" fill="white"/>
<path d="M731.853 7.03174C728.878 7.03174 727 9.70026 727 12.3564C727 15.3441 729.061 17.7151 731.798 17.7151C733.84 17.7151 734.609 16.4723 734.609 16.4723V17.4424H738.061V7.27039H734.609V8.19399C734.609 8.19399 733.75 7.03484 731.853 7.03484V7.03174ZM732.588 10.3015C733.961 10.3015 734.667 11.3863 734.667 12.3657C734.667 13.4194 733.908 14.4546 732.588 14.4546C731.494 14.4546 730.502 13.5589 730.502 12.4091C730.502 11.2592 731.299 10.2984 732.588 10.2984V10.3015Z" fill="white"/>
<path d="M739.248 17.4393V2.77332H742.859V8.22503C742.859 8.22503 743.717 7.03179 745.512 7.03179C747.709 7.03179 748.996 8.66824 748.996 11.0082V17.4393H745.41V11.8915C745.41 11.1012 745.032 10.3357 744.179 10.3357C743.327 10.3357 742.856 11.1136 742.856 11.8915V17.4393H739.245H739.248Z" fill="white"/>
<path d="M755.157 7.03491C751.751 7.03491 749.724 9.62595 749.724 12.3998C749.724 15.5581 752.179 17.7152 755.17 17.7152C758.16 17.7152 760.606 15.6541 760.606 12.4525C760.606 8.9472 757.95 7.03491 755.157 7.03491ZM755.188 10.3326C756.391 10.3326 757.224 11.3337 757.224 12.4029C757.224 13.3142 756.45 14.4392 755.188 14.4392C754.035 14.4392 753.167 13.5125 753.167 12.3937C753.167 11.2748 753.886 10.3326 755.188 10.3326Z" fill="white"/>
<path d="M766.622 7.03491C763.215 7.03491 761.188 9.62595 761.188 12.3998C761.188 15.5581 763.643 17.7152 766.634 17.7152C769.625 17.7152 772.07 15.6541 772.07 12.4525C772.07 8.9472 769.414 7.03491 766.622 7.03491ZM766.653 10.3326C767.855 10.3326 768.689 11.3337 768.689 12.4029C768.689 13.3142 767.914 14.4392 766.653 14.4392C765.5 14.4392 764.632 13.5125 764.632 12.3937C764.632 11.2748 765.351 10.3326 766.653 10.3326Z" fill="white"/>
<path d="M774.922 17.6563C776.246 17.6563 777.32 16.5823 777.32 15.2574C777.32 13.9325 776.246 12.8585 774.922 12.8585C773.597 12.8585 772.523 13.9325 772.523 15.2574C772.523 16.5823 773.597 17.6563 774.922 17.6563Z" fill="white"/>
<path d="M778.108 11.9783H773.79L777.621 2.77332H781.923L778.108 11.9783Z" fill="white"/>
</g>
<defs>
<clipPath id="clip0_8_26">
<rect width="800" height="24" fill="white"/>
</clipPath>
</defs>
</svg>
